# xmcd
#
# Track frame offsets: 
#        150
#        12504
#        24101
#        31356
#        47991
#        68621
#        90172
#        106884
#        117762
#        133946
#        154267
#        161931
#        184133
#        199588
#        220880
#        238690
#
# Disc length: 3329 seconds
#
# Revision: 0
# Processed by: cddbd v1.5.2PL0 Copyright (c) Steve Scherf et al.
# Submitted via: ExactAudioCopy v0.99pb3
#
DISCID=d40cff10
DTITLE=Various Artist - Country Music: Songs for Keith Girdler
DYEAR=2008
DGENRE=Pop
TTITLE0=St. Christopher - I Can't Forget You
TTITLE1=The Wake - Crush the Flowers (demo)
TTITLE2=Pete Fijalkowski - Downsizing
TTITLE3=Lovejoy - Melancholia
TTITLE4=Hal - Down
TTITLE5=Trembling Blue Stars - Soft Evening, Brilliant Morning
TTITLE6=Louis Philippe - Lazy Thunderstorms
TTITLE7=Club 8 - What I'm Dreaming of Is Something I Could Have
TTITLE8=The Clientele - Breathe In Now
TTITLE9=The Time - Sold (alternative version)
TTITLE10=Would Be Goods - I Believe You Cassandra
TTITLE11=Aberdeen - Baby I Don't Care (instrumental)
TTITLE12=LoveDance - His London
TTITLE13=The Orchids - The Lost Star
TTITLE14=Biff Bang Pow! - Back to the Start
TTITLE15=Blueboy - 80's Diaries
EXTD=
EXTT0=
EXTT1=
EXTT2=
EXTT3=
EXTT4=
EXTT5=
EXTT6=
EXTT7=
EXTT8=
EXTT9=
EXTT10=
EXTT11=
EXTT12=
EXTT13=
EXTT14=
EXTT15=
PLAYORDER=
